<svg version="1.0" xmlns="http://www.w3.org/2000/svg" width="210.667" height="377.333" viewBox="0 0 158 283"><path d="M63.5 6.9C44.4 12.4 29.1 27 22.3 46.5l-2.8 8-.3 43.2c-.3 35.9-.1 44.7 1.2 51.5 5.8 30.7 33 51.7 64 49.5 24.9-1.8 46.2-18.9 53.9-43.2 2.1-6.8 2.2-8.2 2.2-54v-47l-3.1-8.5c-7-19.7-21.6-33.5-41.2-39.1-8.6-2.5-24.2-2.5-32.7 0zm34.7 9c17.3 6.7 29.6 21.1 33.4 38.9 2 9.7 2 84.8-.1 94.5-5 23.6-27.3 41.7-51.5 41.7-19.4 0-38.2-11.6-46.9-29-5.9-11.8-6.3-15.8-5.9-64.1.4-40.6.5-42.7 2.6-49C35.1 33 49.6 19.1 66 14.4c7.2-2.1 25.2-1.3 32.2 1.5z"/><path d="M74.1 44.6c-1.9 2.4-2.1 4-2.1 15.6 0 12.4.1 13 2.5 15.3C76 77.1 78.1 78 80 78s4-.9 5.5-2.5c2.4-2.3 2.5-2.9 2.5-15.3 0-11.6-.2-13.2-2.1-15.6-1.6-2-2.9-2.6-5.9-2.6s-4.3.6-5.9 2.6zM37.8 234.1c-4 2.3-1.9 4.7 18.8 21.6 11.3 9.2 21.5 17 22.6 17.1 2.5.4 3.5-.3 26.6-19.1 10.9-8.9 18.2-15.5 18.2-16.6 0-2.1-1.9-4.1-3.8-4.1-.8 0-9.1 6.2-18.4 13.7-9.3 7.6-18.1 14.6-19.4 15.7l-2.5 1.8-19.3-15.6C49.9 240 40.8 233 40.4 233c-.5 0-1.7.5-2.6 1.1z"/></svg>