<?xml version="1.0" encoding="UTF-8"?><svg id="logotipo" xmlns="http://www.w3.org/2000/svg" viewBox="0 0 100 43.74"><path d="m18.95,18.75c0,3.12-2.34,5.06-6.08,5.06h-2.82v3.86h-3.24v-14h6.06c3.74,0,6.08,1.94,6.08,5.08Zm-3.28,0c0-1.54-1-2.44-2.98-2.44h-2.64v4.86h2.64c1.98,0,2.98-.9,2.98-2.42Z"/><path d="m29.17,27.67l-2.7-3.9h-2.98v3.9h-3.24v-14h6.06c3.74,0,6.08,1.94,6.08,5.08,0,2.1-1.06,3.64-2.88,4.42l3.14,4.5h-3.48Zm-3.04-11.36h-2.64v4.88h2.64c1.98,0,2.98-.92,2.98-2.44s-1-2.44-2.98-2.44Z"/><path d="m44.79,25.07v2.6h-10.84v-14h10.58v2.6h-7.36v3.04h6.5v2.52h-6.5v3.24h7.62Z"/><path d="m59.11,27.67l-.02-8.4-4.12,6.92h-1.46l-4.1-6.74v8.22h-3.04v-14h2.68l5.24,8.7,5.16-8.7h2.66l.04,14h-3.04Z"/><path d="m64.47,13.67h3.24v14h-3.24v-14Z"/><path d="m80.87,25.07v2.6h-10.84v-14h10.58v2.6h-7.36v3.04h6.5v2.52h-6.5v3.24h7.62Z"/><path d="m91.37,27.67l-2.7-3.9h-2.98v3.9h-3.24v-14h6.06c3.74,0,6.08,1.94,6.08,5.08,0,2.1-1.06,3.64-2.88,4.42l3.14,4.5h-3.48Zm-3.04-11.36h-2.64v4.88h2.64c1.98,0,2.98-.92,2.98-2.44s-1-2.44-2.98-2.44Z"/></svg>