<?xml version="1.0" encoding="UTF-8"?><svg id="logotipo" xmlns="http://www.w3.org/2000/svg" viewBox="0 0 100 43.74"><path d="m18.95,16.14c0,3.12-2.34,5.06-6.08,5.06h-2.82v3.86h-3.24v-14h6.06c3.74,0,6.08,1.94,6.08,5.08Zm-3.28,0c0-1.54-1-2.44-2.98-2.44h-2.64v4.86h2.64c1.98,0,2.98-.9,2.98-2.42Z"/><path d="m29.17,25.06l-2.7-3.9h-2.98v3.9h-3.24v-14h6.06c3.74,0,6.08,1.94,6.08,5.08,0,2.1-1.06,3.64-2.88,4.42l3.14,4.5h-3.48Zm-3.04-11.36h-2.64v4.88h2.64c1.98,0,2.98-.92,2.98-2.44s-1-2.44-2.98-2.44Z"/><path d="m44.79,22.46v2.6h-10.84v-14h10.58v2.6h-7.36v3.04h6.5v2.52h-6.5v3.24h7.62Z"/><path d="m59.11,25.06l-.02-8.4-4.12,6.92h-1.46l-4.1-6.74v8.22h-3.04v-14h2.68l5.24,8.7,5.16-8.7h2.66l.04,14h-3.04Z"/><path d="m64.47,11.06h3.24v14h-3.24v-14Z"/><path d="m80.87,22.46v2.6h-10.84v-14h10.58v2.6h-7.36v3.04h6.5v2.52h-6.5v3.24h7.62Z"/><path d="m91.37,25.06l-2.7-3.9h-2.98v3.9h-3.24v-14h6.06c3.74,0,6.08,1.94,6.08,5.08,0,2.1-1.06,3.64-2.88,4.42l3.14,4.5h-3.48Zm-3.04-11.36h-2.64v4.88h2.64c1.98,0,2.98-.92,2.98-2.44s-1-2.44-2.98-2.44Z"/><path d="m34.6,33.74l1.71-1.66h1.26v4h-1.49v-1.9l-1.49,1.44-1.49-1.44v1.9h-1.49v-4h1.26l1.71,1.66Z"/><path d="m41.39,33.05v-.39h1.37v3.43h-1.37v-.39c-.33.34-.83.51-1.49.51s-1.14-.17-1.47-.5c-.31-.31-.47-.75-.47-1.33s.16-1.02.47-1.34c.33-.33.82-.49,1.47-.49s1.15.17,1.49.51Zm-.2,1.7c.13-.08.2-.2.2-.38s-.07-.3-.2-.38c-.16-.09-.43-.14-.83-.14s-.67.04-.83.14c-.13.08-.2.2-.2.38s.07.3.2.38c.16.09.43.14.83.14s.67-.05.83-.14Z"/><path d="m46.52,33.02v-.36h1.37v2.8c0,.64-.16,1.09-.48,1.38-.39.34-1.08.51-2.09.51-.62,0-1.25-.1-1.88-.29v-1.26c.57.23,1.14.34,1.71.34s.92-.05,1.11-.15c.16-.08.25-.25.26-.49-.34.32-.83.47-1.49.47s-1.14-.15-1.47-.46c-.31-.29-.47-.71-.47-1.25s.16-.96.47-1.25c.33-.31.82-.46,1.47-.46s1.15.16,1.49.47Zm-.2,1.63c.13-.07.2-.18.2-.34s-.07-.27-.2-.34c-.16-.08-.43-.12-.83-.12s-.67.04-.83.12c-.13.07-.2.18-.2.34s.07.27.2.34c.16.08.43.12.83.12s.67-.04.83-.12Z"/><path d="m51.65,33.05v-.39h1.37v3.43h-1.37v-.39c-.33.34-.83.51-1.49.51s-1.14-.17-1.47-.5c-.31-.31-.47-.75-.47-1.33s.16-1.02.47-1.34c.33-.33.82-.49,1.47-.49s1.15.17,1.49.51Zm-.2,1.7c.13-.08.2-.2.2-.38s-.07-.3-.2-.38c-.16-.09-.43-.14-.83-.14s-.67.04-.83.14c-.13.08-.2.2-.2.38s.07.3.2.38c.16.09.43.14.83.14s.67-.05.83-.14Z"/><path d="m55.16,33.91h-1.67v-1.26h4v.97l-1.73,1.2h1.79v1.26h-4.11v-.97l1.73-1.2Z"/><path d="m59.42,31.74c0,.46-.27.69-.8.69s-.8-.23-.8-.69.27-.69.8-.69.8.23.8.69Zm-1.49,4.34v-3.43h1.37v3.43h-1.37Z"/><path d="m64.34,34.49v1.6h-1.37v-1.6c0-.46-.3-.69-.91-.69s-.91.23-.91.69v1.6h-1.37v-3.43h1.37v.38c.31-.33.77-.5,1.37-.5,1.22,0,1.83.65,1.83,1.94Z"/><path d="m69.42,34.37c0,.18-.02.33-.05.46h-3.33c.1.19.43.29.98.29.45,0,.74-.06.88-.17h1.45c-.22.84-1,1.26-2.33,1.26-1.6,0-2.4-.61-2.4-1.83s.8-1.83,2.4-1.83,2.4.61,2.4,1.83Zm-3.38-.46h1.95c-.1-.19-.43-.29-.98-.29s-.87.09-.98.29Z"/><line x1="30.47" y1="32.09" x2="30.47" y2="36.09" style="fill:none; stroke:#000; stroke-miterlimit:10; stroke-width:.25px;"/></svg>