<?xml version="1.0" encoding="UTF-8"?><svg id="logotipo" xmlns="http://www.w3.org/2000/svg" viewBox="0 0 316 62.5"><path d="m234.02,9.88c0,1.84-.42,3.33-1.26,4.48-.83,1.15-1.92,1.72-3.26,1.72-1.19,0-2.21-.44-3.05-1.32-1.07-1.11-1.6-2.79-1.6-5.02s.56-3.77,1.67-4.9c.83-.84,1.81-1.26,2.95-1.26,1.39,0,2.5.57,3.32,1.7.82,1.14,1.23,2.66,1.23,4.59Zm-3.38.02c0-2.18-.39-3.27-1.16-3.27-.39,0-.69.29-.92.86-.22.53-.34,1.31-.34,2.34s.11,1.8.32,2.36c.21.56.5.84.88.84s.68-.28.89-.83c.22-.55.33-1.32.33-2.3Z"/><path d="m242.72,15.87h-3.13v-4.47c0-.39-.04-.65-.11-.8-.08-.15-.21-.23-.39-.23-.44,0-.66.41-.66,1.24v4.26h-3.13V7.43h3.13c0,.21-.01.4-.02.58,0,.18-.01.34-.02.49l-.03.54c.5-1.19,1.25-1.79,2.22-1.79.68,0,1.2.25,1.58.76.38.51.57,1.21.57,2.11v5.76Z"/><path d="m253.31,15.87h-3.26V6.7h-1.8v-2.89h6.92v2.89h-1.87v9.17Z"/><path d="m263.33,15.87h-3.13v-4.47c0-.39-.04-.65-.11-.8-.08-.15-.21-.23-.39-.23-.44,0-.66.41-.66,1.24v4.26h-3.13V2.68h3.13v4.72c0,.26,0,.47,0,.64s0,.3-.01.39c0,.09-.01.18-.02.28-.01.1-.02.21-.03.33.5-1.19,1.25-1.79,2.22-1.79.68,0,1.2.25,1.58.76.38.51.57,1.21.57,2.11v5.76Z"/><path d="m269.1,13.02l3.06.06c-.22.98-.64,1.73-1.28,2.22-.63.5-1.46.75-2.48.75-1.21,0-2.16-.38-2.84-1.12-.68-.76-1.02-1.8-1.02-3.12s.37-2.43,1.1-3.27c.73-.85,1.68-1.27,2.84-1.27s2.08.41,2.77,1.23c.69.82,1.03,1.91,1.03,3.27l-.02.55h-4.59c.04.86.28,1.3.73,1.3.35,0,.59-.2.7-.59Zm.07-2.39c0-.16-.02-.3-.05-.43-.04-.13-.09-.24-.15-.34s-.14-.17-.23-.22-.18-.08-.29-.08c-.22,0-.4.1-.53.3-.14.2-.2.46-.2.77h1.46Z"/><path d="m288.76,15.87h-3.14l-.75-4.23c-.15-.82-.25-1.53-.33-2.12-.04-.3-.07-.54-.09-.74-.03-.2-.04-.35-.05-.45-.03.21-.07.61-.12,1.2-.03.3-.06.61-.09.94s-.08.67-.13,1.04l-.62,4.38h-3.17l-2.69-12.06h3.22l.53,3.32c.2,1.32.34,2.36.42,3.12l.11,1.1.1-.95c.11-1.1.25-2.15.42-3.15l.61-3.45h2.8l.55,2.9c.26,1.35.49,2.95.68,4.79.06-.83.12-1.56.19-2.2s.14-1.22.23-1.74l.59-3.74h3.18l-2.45,12.06Z"/><path d="m299.47,15.87h-3.14c.03-.28.05-.55.06-.8.02-.25.03-.46.05-.62-.54,1.06-1.27,1.59-2.18,1.59-.79,0-1.42-.4-1.88-1.19-.46-.79-.69-1.88-.69-3.27s.24-2.4.71-3.17c.47-.78,1.12-1.17,1.94-1.17s1.52.51,2.03,1.52c-.01-.1-.02-.2-.02-.27s-.01-.14-.02-.2l-.03-.49-.02-.38h3.2v8.45Zm-3.17-4.33c0-.31-.01-.58-.04-.8s-.06-.4-.11-.54c-.05-.14-.12-.24-.2-.3-.08-.06-.18-.09-.3-.09-.53,0-.8.71-.8,2.12,0,1.01.24,1.52.71,1.52s.74-.64.74-1.91Z"/><path d="m304.05,15.87h-3.13V2.68h3.13v13.2Z"/><path d="m308.64,15.87h-3.13V2.68h3.13v13.2Z"/><path d="m34.54,45.5h-15.4v11.65H6.12V19.95h28.41c10.78,0,16.18,4.1,16.18,12.3v.8c0,8.3-5.39,12.45-16.18,12.45Zm-15.4-16.25v6.95h13.84c2.87,0,4.31-1.13,4.31-3.4v-.15c0-2.27-1.44-3.4-4.31-3.4h-13.84Z"/><path d="m66.66,44.4v12.75h-13.01V19.95h30.98c9.56,0,14.34,3.18,14.34,9.55v.55c0,1.27-.23,2.42-.69,3.45-.46,1.03-1.06,1.87-1.81,2.5-.75.63-1.48,1.13-2.2,1.5-.72.37-1.44.65-2.18.85,2.17.53,3.88,1.56,5.13,3.07,1.25,1.52,1.88,3.44,1.88,5.77v5.5c0,1.93.21,3.33.64,4.2v.25h-13.29c-.28-.33-.41-.98-.41-1.95v-4.35c0-2.2-.53-3.83-1.58-4.88-1.05-1.05-2.83-1.58-5.34-1.58h-12.46Zm0-15.4v6.4h14.94c2.63,0,3.94-1.07,3.94-3.2v-.05c0-2.1-1.31-3.15-3.94-3.15h-14.94Z"/><path d="m102.67,19.95h37.71v9.1h-24.88v4.65h24.38v9.05h-24.38v5.1h25.25v9.3h-38.08V19.95Z"/><path d="m144.51,57.15V19.95h17.87l10.45,20.9,10.63-20.9h17.14v37.2h-12.88v-23.2l-11.96,23.2h-6.64l-11.91-23.2v23.2h-12.69Z"/><path d="m217.96,19.95v37.2h-12.97V19.95h12.97Z"/><path d="m222.36,19.95h37.71v9.1h-24.88v4.65h24.38v9.05h-24.38v5.1h25.25v9.3h-38.08V19.95Z"/><path d="m277.21,44.4v12.75h-13.01V19.95h30.98c9.56,0,14.34,3.18,14.34,9.55v.55c0,1.27-.23,2.42-.69,3.45-.46,1.03-1.06,1.87-1.81,2.5-.75.63-1.48,1.13-2.2,1.5-.72.37-1.44.65-2.18.85,2.17.53,3.88,1.56,5.13,3.07,1.25,1.52,1.88,3.44,1.88,5.77v5.5c0,1.93.21,3.33.64,4.2v.25h-13.29c-.28-.33-.41-.98-.41-1.95v-4.35c0-2.2-.53-3.83-1.58-4.88-1.05-1.05-2.83-1.58-5.34-1.58h-12.46Zm0-15.4v6.4h14.94c2.63,0,3.94-1.07,3.94-3.2v-.05c0-2.1-1.31-3.15-3.94-3.15h-14.94Z"/></svg>