<?xml version="1.0" encoding="UTF-8"?><svg id="logotipo" xmlns="http://www.w3.org/2000/svg" viewBox="0 0 310.24 191.92"><path d="m147.6,83.45c1.72.42,1.03,2.53,1.71,2.63.21.03.43.06.63.08.5.06,1.01.06,1.51,0,.2-.02.41-.05.63-.08.68-.1-.01-2.21,1.71-2.63,1.27-.31,2.6.08,3.01-.38.77-.87-1.1-1.6-1.1-1.6,0,0,.68.51-1.83.96-1.71.31-1.48,1.13-1.89,1.44-.05.03-.15.07-.28.11-.66.18-1.35.18-2.01,0-.13-.04-.23-.07-.28-.11-.41-.31-.18-1.13-1.89-1.44-2.51-.45-1.83-.96-1.83-.96,0,0-1.87.74-1.1,1.6.42.47,1.75.08,3.01.38Z"/><path d="m158.4,88.48s.11.63.05.81c-.22.57-3.64-2.61-4.58-2.13-.81.41-1.43.7-1.87.9-.6.27-1.29.27-1.89,0-.45-.2-1.06-.49-1.87-.9-.94-.48-4.36,2.7-4.58,2.13-.07-.18.05-.81.05-.81,0,0-.82.43-.77.91.05.48,1.67.55,1.67.55,0,0,2.95-1.6,3.72-1.42.15.04.3.1.46.19.01,0,.21.13.5.28.11.06.22.12.34.18.54.29,1.2.61,1.48.61.51,0,2.07-.99,2.24-1.08.16-.08.31-.15.46-.19.77-.18,3.72,1.42,3.72,1.42,0,0,1.62-.07,1.67-.55.05-.48-.77-.91-.77-.91Z"/><path d="m231.81,56.49s-7.43-2.04-13.94.34c-7.88,2.88-15.49,1.95-20.46-.39-3.16-1.49-5.97-2.17-7.59-2.48,1.96-2.41,3.58-4.76,5.64-5.65,5.07-2.19,12.69,1.04,12.69,1.04-10.31-12.04-24.79-2.46-24.79-2.46,3.63-4.12,12.96-6.06,12.96-6.06-6.84-2.48-12.58-.28-16.21,2.03,3.01-4.94,3.67-10.7,3.67-10.7-1.34,4.4-7.61,7.17-7.61,7.17,7.83-6.99,6.01-15.6,6.01-15.6-4.04,8.16-10.4,8.83-15.4,8.94-3.37.08-4.23.36-4.43.53.21-.76,1.19-4.63.99-11.01-.51-15.84-11.05-21.03-11.05-21.03,6.79,6.66,2.41,20.89,2.41,20.89,1.14-5.19-3.9-13.46-3.9-13.46,0,0,1.4,8.73-4.4,12.44-5.8,3.71-7.36,9.2-7.36,9.2-1.27-1.88-4.86-3.34-8.77-5.77-3.91-2.42-4.35-8.34-4.35-8.34-5.35,7.22-3.36,13.43-2.11,15.98-.11-.03-.22-.06-.33-.08-3.41-.95-8.74-1.43-12.19-3.96-4.2-3.08-5.83-10.95-5.83-10.95v.04s0-.04,0-.04c-3.04,12.17,5.15,20.55,5.15,20.55-2.39-.45-5.73-4.98-5.73-4.98.5,14.35,13.41,16.06,13.41,16.06-3.9,7.64-8.82,5.42-15.97,2.34-7.16-3.09-11.06,2.86-11.06,2.86,5.75-2.83,10.88,2.04,12.71,5.64,1.83,3.6,6.69,7.2,6.69,7.2,0,0,.61.22-13.21-2.55-13.83-2.77-20.26,9.19-20.26,9.19,5.35-5.06,15.34-2.42,19.38,1.64,4.04,4.06,9.26,4.92,9.26,4.92-2.93.85-8.25-2.35-8.25-2.35,5.49,11.95,17.76,9.41,17.76,9.41-10.93,8.2-3.68,17.69-3.68,17.69-.35-5,2.54-8.77,9.89-9.12,2.06-.1,3.96-.7,5.64-1.51-.07,1.63.14,4.59,1.52,9.49,2.42,8.57-4.05,11.1-4.05,11.1,13.26.31,15.68-11.48,15.68-11.48,0,0,1.5.96,6.47,7.04,4.35,5.33-.65,9.92.64,16.07.01.07.05.14.07.21.7,4.09,6.77,6.72,6.77,6.72-3.63-10.54,5.12-13.19,8.9-17.81,4.24-5.18.89-10.77.89-10.77,3.35-.07,6.22,8.1,6.22,8.1,1.71-7.67-3.17-10.46-3.17-10.46,6.58,2.32,4.62,11.55,4.62,11.55,4.29-5.92,3.46-13.43-.7-17.61-4.16-4.18-3.3-8.52-3.3-8.52,3.24,5.82,9.22,5.38,15.32,7.02,6.33,1.7,8.42,10,8.42,10,.69-10.05-3.45-14.7-4.83-15.96,4.56,3.52,11.19.27,11.19.27-11.21-.51-11.62-5.27-14.76-8.92,7.72-.48,15.37-8.03,20.45-9.36,5.11-1.34,10.83,1.21,10.83,1.21-4.2-4.87-9.77-4.68-9.77-4.68,8.15-.27,8.68-2.61,13.64-5.9,4.96-3.29,13.57-4.93,13.57-4.93Zm-51.07-12.12c2.41-4.22,11.01-3.19,11.01-3.19,0,0-13.1,1.85-10.3,7.88,0,0,14.46-7.91,21.8-2.13,0,0-8.65-2.84-12.51,2.78-3.23,4.7-6.97,10.88-13.57,8.89,0,0,0,0,0,0,.15-.5.28-1,.38-1.51,1.93.51,3.7-.29,5.59-5,.76-1.91,2.43-2.24,2.43-2.24,0,0-2.2-.75-4.03,2.18-2.13,3.41-3.57,2.52-3.77,2.37,0-.01,0-.02,0-.04,1.53-.99,1.73-5.41,1.73-5.41-.44,1.27-1.72,2.25-2.55,2.78-.65-1.07-1.73-2.04-3.42-2.83,0,0,4.81-.31,7.22-4.53Zm-25.46,8.05c-2.62-1.85-2.84-5.54-2.67-7.87.13-1.9,1.36-3.58,3.17-4.19,3.33-1.13,7.59.53,9.15,4.02,2.08,4.65,5.33,4.14,9.24,7.2l.79.92c2.3,3.98-1.97,13.9-1.14,16.95.9,3.32,4.85,1.91,4.85,1.91,0,0-1.22,3.9-4.28,3.4-4.02-.66-3.65-2.95-5.79-9.17-2.14-6.22-7.34-9.63-7.34-9.63,2.5-.94,7.99,3.38,7.99,3.38-5.91-7.46-9.94-4.07-13.95-6.91Zm9.61-17.3c9.05-.26,13.79-2.73,16.12-7.87,0,0-1.49,10.72-8.21,13.26,0,0,5.66,1.53,8.91-3.52,0,0-1.62,5.93-7.03,8.34-2.3,1.03-5.03.6-7.09-.85-1.08-.76-1.61-2.02-2.36-3.45-.07-.12-.13-.24-.2-.36,5.46,0,7.75-4.24,7.75-4.24,0,0-2.8,2.93-7.72,1.63-4.92-1.3-9.45.95-9.45.95,0,0,4.09-3.75,9.28-3.9Zm-21.4-8.04c4.7-5.22,7.61-4.3,8.41-13.7,0,0,2.84,9.64,1.55,15.02,0,0,6.52-10.69,4.39-19.38,0,0,11.64,17.11-4.24,30.61h-.01c-.02-.14-.53-3.29-4.01-4.04-.24-1.04-.25-2.38.48-3.88,1.67-3.46,1.17-7.89,1.17-7.89-.64,3.47-2.05,5.08-4.01,8.16-.92,1.45-1.16,2.71-1.15,3.64-1.51.27-3.32.86-5.48,1.9,0,0-1.79-5.21,2.91-10.43Zm1.15,10.58c4.02-.79,8.69,1.44,6.35,5.04,0,0-3.32-5.09-11.78.52,1.75-.76,5-1.78,10.71,1.15,0,0-2.31,4.86-7.42,5.74-5.11.88-11.19-.23-13.86,6.12,0,0,3-2.87,7.56-2.96l1.49-.13c-7.72,6.15-7.33,6.76-9.94,13.84-2.47,6.7-7.44,2.83-7.97,2.39,2.51-.74,4.58-2.41,4.34-5.97-.58-8.56.41-10.27,3.43-12.05,1.14-.65,2.02-1.12,2.75-1.53,2.06-1.16,2.93-1.84,4.89-4.61,0,0,3.78-6.43,9.44-7.55Zm-19.82,38.58c-2.08.49-5.38,1.07-7.81.51,0,0,3.54-.61,5.8-1.74.63.47,1.3.89,2,1.23Zm.75-56.8s-.79,5.79,7.2,8.58c.05.02.1.04.15.06,3.29,1.39,5.11,4.95,4.28,8.42-.54,2.26-.62,4.03-.62,4.03,0,0,0-.02-.02-.06-.25-.84-.7-1.59-1.27-2.24-1.34-1.73-3.98-4.04-9.02-5.45-.17-.05-.09-.02,0,0-3.22-4.7-.7-13.34-.7-13.34Zm-7.64,25.95c-8.16.65-11.98-9.68-11.98-9.68,4.82,8.53,9.44,4.25,9.44,4.25-7.34-2.66-9.35-16.65-9.35-16.65,2.87,6.74,5.54,10.34,12.43,10.66,13.64.64,13.96,8.06,13.96,8.06-1.13-.56-2.36-.75-3.57-.71,0,0,0,0,0,0,0,0,0,0-.02,0-.2,0-.39.02-.59.04-1.89.1-7.69.19-9.78-2.36,0,0,1.08,3.77,4.52,4.29-.04.03-.08.06-.12.09-1.44,1.11-3.13,1.86-4.93,2Zm-13.26,11.48c-2.25-3.82-5.77-4.61-5.77-4.61,0,0,4.29.3,9.16,3.31,4.87,3.01,11.23-3.36,11.63-6.62.39-3.27,9.72-8.45,13.11-4,0,0,0,1.1-.84,2.4-4.86-1.01-8.89,2.93-8.89,2.93,3.78-1.69,5.81-1.24,6.69-.81-.63.4-1.39.77-2.3,1.08-5.35,1.81-8.6,5.05-7.46,12.18l.03.03c-.79,1.45-2.04,2.65-4.18,3.16l-.03.02c-5.46.72-9.29-5.91-11.15-9.07Zm8.04,28.86c-7.77-.51-9.83-3.8-9.83-3.8,0,0,6.85.7,9.07-2.31,0,0-7.66-.8-12.01-3.72-4.34-2.93-5.75-4.77-8.47-5.78,0,0,6.14,0,11.08,2.37,0,0-9.1-6.51-17.18-4.59,0,0,6.45-3.53,14.57-1.35,8.12,2.17,14.44,4.05,18.43,3.83,0,0,1.13,1.65,2.88,3.31-2.17.86-7.31,2.22-12.63-1.19,0,0,7.43,9.03,16.15,5.79-1,2.86-3.94,7.97-12.07,7.44Zm5.84,8.47c-5.7,1.3-7.55,5.29-7.55,5.29-.83-11.75,8.25-12.12,12.67-13.76,2.69-1,4.81-3.66,6.06-5.58.34.84,1.03,2.42,1.73,4.02-.01.24-.03.47-.04.68-.14,1.92-.8,3.77-1.97,5.3-2.76,3.58-6.21,2.99-10.89,4.06Zm10.88,18.49c2.95-2.27-.11-10.21-.31-12.07-.2-1.86-.75-5.18,2.55-7.05.87-.49,1.56-1.1,2.11-1.72.73,2.44,2.19,8.42.51,12.9,0,0,3.23-5.46,2.34-13,2.19,2.59,2.9,8.55,2.9,8.55-2.4,10.71-10.11,12.39-10.11,12.39Zm60.72-14.39s-.01-.03-.02-.05c.01.03.02.05.02.05Zm1.46-9.57c-5.84.42-9.79-4.74-9.79-4.74,0,0,.4,5.21,5.29,6.95,1.22,2.49,2.41,5.65,2.86,6.86-1.69-4.17-6.84-4.75-12.95-5.96-.42-.1-.94-.21-1.58-.33-.19-.04-.38-.08-.57-.12,0,0-.68-.16-1.65-.55-2.05-.92-3.13-2.39-3.69-3.63.92.24,2.12.38,3.69.29,5.49-.29,10.13,2.22,10.13,2.22,0,0-3.17-3.18-7.98-4.84-7.1-2.45-6.66-10.4-6.66-10.4l-.78,5.69c-.2,1.49-.7,2.93-1.46,4.22-.26.66-.59,1.44-.95,2.21-1.06-.37-1.92-3.52-4.67-5.86-3.07-2.62,4.03,4.71,1.76,9.84l.86-.34.74-1.1c.17.58,1.29,3.88,6.6,9.34,4.31,4.43,1.95,11.16,1.95,11.16,0,0,.23-8.48-8.88-9.39,0,0,3.54,2.69,4.3,5.7,0,0-2.6-3.37-4.84-2.9l-1.59-1.73-5.53-8.8c-.03-.06-.06-.09-.06-.09-.65-.3-.56.21-1.28.37-.32.07-3.79-.36-3.79-.36-1.77-.38-4.06,1.19-4.22-.01-.16-1.21-2.09-.92-1.59.21.29.66,1.07,1.62,1.66,2.3.38.44,1.07.44,1.46,0,0,0,.42-.78,2.82-.8,1.21,0,2.46-.12,3.34.04,0,0,.01,0,.02,0-.54,1.08-1.13,2.32-2.63,2.74,0,0,6.93,9.59,4.78,16.86,0,0,4.04-7.92-1.32-16.56,0,0,.01,0,.03,0h-.03c2.48,1.18,5.48,4.26,6.34,7.41,1.69,6.21-2.92,12.03-5.11,14.09-2.19,2.06-6.25,6.45-4.79,11.96-.04-.03-.07-.07-.1-.11-.54-.57-2.97-3.55-1.25-9.08.35-.94.77-1.82,1.15-2.63.03-.07.06-.14.09-.21h0s0-.02.01-.03c.06-.15.12-.31.18-.47,4.67-12.64-4.74-17.89-4.74-17.89l3.43,6.75-2.04-1.65c4.53,7.01,2.58,10.26,2.58,10.26-.7-3.66-2.42-6.57-3.76-8.39-1.42-1.93-2.68-3.98-3.73-6.14l-2.64-5.44,5.56,2.52-9.43-8.54c-1.13-5.03,4.95-11.34,2.07-8.88-3.07,2.62-3.78,6.24-5.05,5.88-1.03-.3-1.89-8.19-2.18-11.19l4.04,1.29-3.32-2.77c-1.39-1.16-2.35-2.77-2.7-4.55l-.08-.42c-.33-1.68.37-3.39,1.78-4.36.66-.45,1.53-.49,2.22-.09l1.7.97c.41.23.33.85-.12.98l-.23.07s.94,3.97,3.03,4.37c2.59.5,2.36-.29,5.33.29l.06-1.11c-1.11-1.31-1.99-2.13-3.51-2.94l2.49.94c2.41.83,2.32,2.07,2.03,3.6-.05.25,0,.5.14.72l3.33,5.31s-1.88-4.62-1.57-5.95c.31-1.33,1.63-3.55.81-5.45-.83-1.9.55-3.98.55-3.98l-1.01.56c-2.11,1.17-3.42.92-5.92.22l-4.38-1.57c-.85-.39-1.84-.33-2.63.17l-2.61,1.63c.73-1.02,1.73-2.39,2.82-3.83l.38-.46-.05.02c1.65-2.18,3.47-4.48,4.88-5.98,0,0,7.46-1.18,11.55-6.07-.05,3.95.71,10.28,5.87,11.94,3.03.98,5.43,1.23,7.08,2.4-.17.04-.33.1-.49.17l-4.38,1.57c-2.5.7-3.82.95-5.92-.22l-1.01-.56s1.38,2.08.55,3.98c-.78,1.79.84,4.42,1.3,5.83.07.21.19.4.38.51.25.15.46.04.8-.76.61-1.44-.15-2.98,2.25-3.82l2.49-.94c-1.52.8-2.4,1.62-3.51,2.94l.06,1.11c2.97-.58,2.74.21,5.33-.29,2.09-.4,3.03-4.37,3.03-4.37l-.23-.07c-.45-.13-.53-.74-.12-.98l1.57-.9c.58,2.1.69,5.27.26,10.25l-2.22,1.85,2.12-.68c-.09.91-.19,1.88-.31,2.91,0,0,2.73-4.29,3.2-7.55,0,0,.07.83.48,1.83.98,2.89,3.72,8.01,10.5,5.91.85.74,1.67,1.63,2.39,2.71,3.82,5.73,9.18,6.89,9.18,6.89Zm21.27-25.67c.6-.29.9-.28.9-.28-.3.17-1.58,1.05-1.91,1.2-2.64,1.27-7.6,3.06-14.51,1.92,0,0,7.57,2.9,9.9,3.47.37.05.57.1.57.1-.11,0-.31-.03-.57-.1-1.27-.16-4.54-.33-8.69,1.39-5.23,2.18-11.09,7.59-18.54,6.55-.85-.71-1.51-1.21-2.02-1.55,2.84-1.67,2.93-5.11,2.93-5.11,0,0-1.73.13-3.28-.24,3.84-.61,5.26-1.91,7.8-4.63,2.99-3.22,7.72-3.47,7.72-3.47,0,0-2.89-2.26-7.02.09-6.41,3.64-9.63,2.74-9.63,2.74,3.4-1.09,6.2-4.21,7.42-5.97.9-.47,1.72-1.04,2.47-1.66,2.25-.44,6.46-.77,11.48,1.21,9.51,3.75,16.72.92,19.41-.13,0,0-5.71,3.88-13.51,3.95,0,0,4.22,2.63,9.07.53Z"/><path d="m126.28,32.77s0,0,0,0c.16.04.08.02,0,0Z"/><path d="m230.04,141.45c0,1.84-.42,3.33-1.26,4.48-.83,1.15-1.92,1.72-3.26,1.72-1.19,0-2.21-.44-3.05-1.32-1.07-1.11-1.6-2.79-1.6-5.02s.56-3.77,1.67-4.9c.83-.84,1.81-1.26,2.95-1.26,1.39,0,2.5.57,3.32,1.7.82,1.14,1.23,2.66,1.23,4.59Zm-3.38.02c0-2.18-.39-3.27-1.16-3.27-.39,0-.69.29-.92.86-.22.53-.34,1.31-.34,2.34s.11,1.8.32,2.36c.21.56.5.84.88.84s.68-.28.89-.83c.22-.55.33-1.32.33-2.3Z"/><path d="m238.75,147.45h-3.13v-4.47c0-.39-.04-.65-.11-.8-.08-.15-.21-.23-.39-.23-.44,0-.66.41-.66,1.24v4.26h-3.13v-8.45h3.13c0,.21-.01.4-.02.58,0,.18-.01.34-.02.49l-.03.54c.5-1.19,1.25-1.79,2.22-1.79.68,0,1.2.25,1.58.76.38.51.57,1.21.57,2.11v5.76Z"/><path d="m249.33,147.45h-3.26v-9.17h-1.8v-2.89h6.92v2.89h-1.87v9.17Z"/><path d="m259.36,147.45h-3.13v-4.47c0-.39-.04-.65-.11-.8-.08-.15-.21-.23-.39-.23-.44,0-.66.41-.66,1.24v4.26h-3.13v-13.2h3.13v4.72c0,.26,0,.47,0,.64s0,.3-.01.39c0,.09-.01.18-.02.28-.01.1-.02.21-.03.33.5-1.19,1.25-1.79,2.22-1.79.68,0,1.2.25,1.58.76.38.51.57,1.21.57,2.11v5.76Z"/><path d="m265.12,144.59l3.06.06c-.22.98-.64,1.73-1.28,2.22-.63.5-1.46.75-2.48.75-1.21,0-2.16-.38-2.84-1.12-.68-.76-1.02-1.8-1.02-3.12s.37-2.43,1.1-3.27c.73-.85,1.68-1.27,2.84-1.27s2.08.41,2.77,1.23c.69.82,1.03,1.91,1.03,3.27l-.02.55h-4.59c.04.86.28,1.3.73,1.3.35,0,.59-.2.7-.59Zm.07-2.39c0-.16-.02-.3-.05-.43-.04-.13-.09-.24-.15-.34s-.14-.17-.23-.22-.18-.08-.29-.08c-.22,0-.4.1-.53.3-.14.2-.2.46-.2.77h1.46Z"/><path d="m284.79,147.45h-3.14l-.75-4.23c-.15-.82-.25-1.53-.33-2.12-.04-.3-.07-.54-.09-.74-.03-.2-.04-.35-.05-.45-.03.21-.07.61-.12,1.2-.03.3-.06.61-.09.94s-.08.67-.13,1.04l-.62,4.38h-3.17l-2.69-12.06h3.22l.53,3.32c.2,1.32.34,2.36.42,3.12l.11,1.1.1-.95c.11-1.1.25-2.15.42-3.15l.61-3.45h2.8l.55,2.9c.26,1.35.49,2.95.68,4.79.06-.83.12-1.56.19-2.2s.14-1.22.23-1.74l.59-3.74h3.18l-2.45,12.06Z"/><path d="m295.5,147.45h-3.14c.03-.28.05-.55.06-.8.02-.25.03-.46.05-.62-.54,1.06-1.27,1.59-2.18,1.59-.79,0-1.42-.4-1.88-1.19-.46-.79-.69-1.88-.69-3.27s.24-2.4.71-3.17c.47-.78,1.12-1.17,1.94-1.17s1.52.51,2.03,1.52c-.01-.1-.02-.2-.02-.27s-.01-.14-.02-.2l-.03-.49-.02-.38h3.2v8.45Zm-3.17-4.33c0-.31-.01-.58-.04-.8s-.06-.4-.11-.54c-.05-.14-.12-.24-.2-.3-.08-.06-.18-.09-.3-.09-.53,0-.8.71-.8,2.12,0,1.01.24,1.52.71,1.52s.74-.64.74-1.91Z"/><path d="m300.08,147.45h-3.13v-13.2h3.13v13.2Z"/><path d="m304.66,147.45h-3.13v-13.2h3.13v13.2Z"/><path d="m31.56,177.08h-15.4v11.65H3.15v-37.2h28.41c10.78,0,16.18,4.1,16.18,12.3v.8c0,8.3-5.39,12.45-16.18,12.45Zm-15.4-16.25v6.95h13.84c2.87,0,4.31-1.13,4.31-3.4v-.15c0-2.27-1.44-3.4-4.31-3.4h-13.84Z"/><path d="m63.68,175.98v12.75h-13.01v-37.2h30.98c9.56,0,14.34,3.18,14.34,9.55v.55c0,1.27-.23,2.42-.69,3.45-.46,1.03-1.06,1.87-1.81,2.5-.75.63-1.48,1.13-2.2,1.5-.72.37-1.44.65-2.18.85,2.17.53,3.88,1.56,5.13,3.07,1.25,1.52,1.88,3.44,1.88,5.77v5.5c0,1.93.21,3.33.64,4.2v.25h-13.29c-.28-.33-.41-.98-.41-1.95v-4.35c0-2.2-.53-3.83-1.58-4.88-1.05-1.05-2.83-1.58-5.34-1.58h-12.46Zm0-15.4v6.4h14.94c2.63,0,3.94-1.07,3.94-3.2v-.05c0-2.1-1.31-3.15-3.94-3.15h-14.94Z"/><path d="m99.7,151.53h37.71v9.1h-24.88v4.65h24.38v9.05h-24.38v5.1h25.25v9.3h-38.08v-37.2Z"/><path d="m141.53,188.73v-37.2h17.87l10.45,20.9,10.63-20.9h17.14v37.2h-12.88v-23.2l-11.96,23.2h-6.64l-11.91-23.2v23.2h-12.69Z"/><path d="m214.99,151.53v37.2h-12.97v-37.2h12.97Z"/><path d="m219.38,151.53h37.71v9.1h-24.88v4.65h24.38v9.05h-24.38v5.1h25.25v9.3h-38.08v-37.2Z"/><path d="m274.23,175.98v12.75h-13.01v-37.2h30.98c9.56,0,14.34,3.18,14.34,9.55v.55c0,1.27-.23,2.42-.69,3.45-.46,1.03-1.06,1.87-1.81,2.5-.75.63-1.48,1.13-2.2,1.5-.72.37-1.44.65-2.18.85,2.17.53,3.88,1.56,5.13,3.07,1.25,1.52,1.88,3.44,1.88,5.77v5.5c0,1.93.21,3.33.64,4.2v.25h-13.29c-.28-.33-.41-.98-.41-1.95v-4.35c0-2.2-.53-3.83-1.58-4.88-1.05-1.05-2.83-1.58-5.34-1.58h-12.46Zm0-15.4v6.4h14.94c2.63,0,3.94-1.07,3.94-3.2v-.05c0-2.1-1.31-3.15-3.94-3.15h-14.94Z"/></svg>